HIERARCHY
ROOT Pelvis
{
	OFFSET 0.000000 0.000000 0.000000
	CHANNELS 6 Xposition Yposition Zposition Xrotation Yrotation Zrotation
	JOINT LeftUpLeg_virtual
	{
		OFFSET 0.000000 0.000000 0.000000
		CHANNELS 3 Xrotation Yrotation Zrotation
		JOINT LeftUpLeg
		{
			OFFSET 18.735201 -5.666702 -4.541200
			CHANNELS 3 Xrotation Yrotation Zrotation
			JOINT LeftLeg
			{
				OFFSET -0.021200 -31.938179 0.493100
				CHANNELS 3 Xrotation Yrotation Zrotation
				JOINT LeftFoot
				{
					OFFSET 0.021200 -31.938179 -4.336299
					CHANNELS 3 Xrotation Yrotation Zrotation
					JOINT LeftToeBase
					{
						OFFSET 0.943001 -26.722000 15.023500
						CHANNELS 3 Xrotation Yrotation Zrotation
						End Site
						{
							OFFSET 0 0 0
						}
					}
				}
			}
		}
	}
	JOINT RightUpLeg_virtual
	{
		OFFSET 0.000000 0.000000 0.000000
		CHANNELS 3 Xrotation Yrotation Zrotation
		JOINT RightUpLeg
		{
			OFFSET -18.735201 -5.666702 -4.541200
			CHANNELS 3 Xrotation Yrotation Zrotation
			JOINT RightLeg
			{
				OFFSET 0.018946 -31.938133 0.493100
				CHANNELS 3 Xrotation Yrotation Zrotation
				JOINT RightFoot
				{
					OFFSET -0.018946 -31.938126 -4.336299
					CHANNELS 3 Xrotation Yrotation Zrotation
					JOINT RightToeBase
					{
						OFFSET -0.943001 -26.722004 15.023500
						CHANNELS 3 Xrotation Yrotation Zrotation
						End Site
						{
							OFFSET 0 0 0
						}
					}
				}
			}
		}
	}
	JOINT Hips_virtual
	{
		OFFSET 0.000000 0.000000 0.000000
		CHANNELS 3 Xrotation Yrotation Zrotation
		JOINT Hips
		{
			OFFSET -0.000000 -0.000000 -0.000000
			CHANNELS 3 Xrotation Yrotation Zrotation
			JOINT Spine
			{
				OFFSET 0.000000 10.199997 -0.299500
				CHANNELS 3 Xrotation Yrotation Zrotation
				JOINT Spine1
				{
					OFFSET 0.000000 11.900002 -1.516600
					CHANNELS 3 Xrotation Yrotation Zrotation
					JOINT Spine2
					{
						OFFSET 0.000000 13.600006 -2.842500
						CHANNELS 3 Xrotation Yrotation Zrotation
						JOINT Neck_virtual
						{
							OFFSET 0.000000 0.000000 0.000000
							CHANNELS 3 Xrotation Yrotation Zrotation
							JOINT Neck
							{
								OFFSET 0.000000 9.624100 -2.890100
								CHANNELS 3 Xrotation Yrotation Zrotation
								JOINT Head
								{
									OFFSET 0.000000 14.068802 -1.351900
									CHANNELS 3 Xrotation Yrotation Zrotation
									End Site
									{
										OFFSET 0 0 0
									}
								}
							}
						}
						JOINT LeftShoulder_virtual
						{
							OFFSET 0.000000 0.000000 0.000000
							CHANNELS 3 Xrotation Yrotation Zrotation
							JOINT LeftShoulder
							{
								OFFSET 15.263000 10.923401 -0.547700
								CHANNELS 3 Xrotation Yrotation Zrotation
								JOINT LeftArm
								{
									OFFSET 25.438599 -2.830597 -13.032500
									CHANNELS 3 Xrotation Yrotation Zrotation
									JOINT LeftForeArm
									{
										OFFSET 29.960503 0.000000 0.000000
										CHANNELS 3 Xrotation Yrotation Zrotation
										JOINT LeftHand
										{
											OFFSET 27.849251 0.000000 0.000000
											CHANNELS 3 Xrotation Yrotation Zrotation
											End Site
											{
												OFFSET 0 0 0
											}
										}
									}
								}
							}
						}
						JOINT RightShoulder_virtual
						{
							OFFSET 0.000000 0.000000 0.000000
							CHANNELS 3 Xrotation Yrotation Zrotation
							JOINT RightShoulder
							{
								OFFSET -15.263000 10.923401 -0.547700
								CHANNELS 3 Xrotation Yrotation Zrotation
								JOINT RightArm
								{
									OFFSET -25.438599 -2.830597 -13.032500
									CHANNELS 3 Xrotation Yrotation Zrotation
									JOINT RightForeArm
									{
										OFFSET -29.960503 0.000000 0.000000
										CHANNELS 3 Xrotation Yrotation Zrotation
										JOINT RightHand
										{
											OFFSET -27.849251 0.000000 0.000000
											CHANNELS 3 Xrotation Yrotation Zrotation
											End Site
											{
												OFFSET 0 0 0
											}
										}
									}
								}
							}
						}
					}
				}
			}
		}
	}
}
MOTION
Frames: 12
Frame Time: 0.03333333
-228.427658 92.604996 -12.706729 0.000000 0.000000 0.000000 7.809850 -1.757733 -1.325900 -31.429133 10.993813 15.671451 33.552744 -9.830299 0.848447 -15.652239 -9.715189 -10.090051 0.000000 0.000000 0.000000 10.555157 10.983610 1.846458 -13.872358 -3.105082 -10.441402 27.533153 0.992067 -0.042133 -20.026878 -3.224107 11.160526 0.000000 0.000000 0.000000 2.921524 -2.044680 1.370534 1.679324 0.186700 2.529754 3.542561 -0.357616 -0.264412 -0.272902 0.041447 0.579591 0.000000 0.000000 0.000000 5.224585 0.488418 -0.131206 0.046102 -0.279620 0.046078 0.000000 0.000000 0.000000 2.801800 0.809465 -0.786315 1.172690 -3.981234 -12.449815 11.170851 -9.151843 -57.156963 6.737481 -40.962284 -2.826922 0.000000 0.000000 0.000000 5.141758 0.471333 -0.293509 2.528258 5.440501 7.482921 7.911292 -6.980335 50.072127 4.545751 26.850935 1.493236 0.000000 0.000000 0.000000 
-228.336929 92.661736 -12.883591 0.000000 0.000000 0.000000 7.793837 -1.847531 -1.301401 -31.457266 10.961719 15.690145 33.561705 -9.813524 0.858329 -15.634397 -9.707347 -10.067519 0.000000 0.000000 0.000000 10.538295 10.960930 1.802927 -13.917579 -3.101899 -10.501052 27.501053 0.986188 -0.007997 -20.064582 -3.252871 11.210590 0.000000 0.000000 0.000000 2.924059 -2.052352 1.385303 1.657766 0.156536 2.629655 3.491251 -0.317411 -0.308540 -0.310850 0.061060 0.561383 0.000000 0.000000 0.000000 5.190023 0.493571 -0.174872 0.024056 -0.266754 0.033319 0.000000 0.000000 0.000000 2.777754 0.852941 -0.797959 1.185726 -3.755675 -12.408680 10.874492 -9.777143 -57.142455 6.759691 -41.837047 -2.757712 0.000000 0.000000 0.000000 5.069988 0.466678 -0.311360 2.475793 5.354185 7.445612 7.842949 -6.601873 49.731751 4.600793 27.627408 1.361836 0.000000 0.000000 0.000000 
-228.217102 92.725769 -13.074024 0.000000 0.000000 0.000000 7.766998 -1.950454 -1.282007 -31.500184 10.925982 15.702820 33.587681 -9.787854 0.869355 -15.600470 -9.693053 -10.039298 0.000000 0.000000 0.000000 10.504923 10.934021 1.755499 -13.989115 -3.096590 -10.568243 27.479017 0.979679 0.023351 -20.097360 -3.280410 11.256109 0.000000 0.000000 0.000000 2.923932 -2.045630 1.400340 1.617554 0.141628 2.737205 3.440094 -0.264192 -0.354784 -0.349024 0.087997 0.541899 0.000000 0.000000 0.000000 5.152512 0.504099 -0.220034 0.000024 -0.251214 0.021716 0.000000 0.000000 0.000000 2.751317 0.904629 -0.803599 1.201003 -3.500348 -12.329057 10.473671 -10.475975 -57.136144 6.764075 -42.879002 -2.677993 0.000000 0.000000 0.000000 4.985225 0.466455 -0.337465 2.411350 5.274239 7.380725 7.730982 -6.146502 49.355504 4.657806 28.551622 1.214138 0.000000 0.000000 0.000000 
-228.067657 92.798019 -13.274425 0.000000 0.000000 0.000000 7.729074 -2.066899 -1.269443 -31.558281 10.887066 15.707695 33.635099 -9.752874 0.879950 -15.546819 -9.671362 -10.007889 0.000000 0.000000 0.000000 10.453454 10.902326 1.705752 -14.088699 -3.089263 -10.641296 27.469248 0.970525 0.051282 -20.122897 -3.308118 11.294926 0.000000 0.000000 0.000000 2.922823 -2.020000 1.415169 1.565472 0.146563 2.851277 3.387522 -0.197909 -0.402250 -0.387800 0.122417 0.521320 0.000000 0.000000 0.000000 5.112255 0.520312 -0.265785 -0.025931 -0.233014 0.011916 0.000000 0.000000 0.000000 2.722725 0.964480 -0.802749 1.217997 -3.216869 -12.207710 9.950496 -11.236979 -57.142677 6.742223 -44.087707 -2.590443 0.000000 0.000000 0.000000 4.888061 0.471136 -0.373275 2.335301 5.202754 7.282093 7.561352 -5.611581 48.949442 4.711992 29.634575 1.053599 0.000000 0.000000 0.000000 
-227.889191 92.878929 -13.480938 0.000000 0.000000 0.000000 7.679655 -2.197540 -1.265211 -31.632095 10.845263 15.703184 33.708169 -9.708053 0.888388 -15.469900 -9.641148 -9.975916 0.000000 0.000000 0.000000 10.382121 10.863986 1.655018 -14.218274 -3.080290 -10.718944 27.475216 0.956893 0.075394 -20.137874 -3.337238 11.325443 0.000000 0.000000 0.000000 2.923100 -1.971349 1.429267 1.511583 0.176042 2.970153 3.332078 -0.119198 -0.449889 -0.427467 0.164068 0.499888 0.000000 0.000000 0.000000 5.069511 0.542200 -0.311399 -0.053704 -0.212347 0.004445 0.000000 0.000000 0.000000 2.692510 1.031930 -0.795781 1.235957 -2.908956 -12.044822 9.288303 -12.044531 -57.167994 6.684371 -45.455343 -2.500045 0.000000 0.000000 0.000000 4.780044 0.481031 -0.419756 2.248941 5.141700 7.145104 7.320402 -4.996482 48.521029 4.757902 30.882031 0.884963 0.000000 0.000000 0.000000 
-227.683456 92.968102 -13.689886 0.000000 0.000000 0.000000 7.617980 -2.343348 -1.270358 -31.722663 10.800569 15.688222 33.810649 -9.652689 0.893031 -15.366396 -9.601154 -9.945713 0.000000 0.000000 0.000000 10.289021 10.815976 1.604281 -14.380019 -3.070271 -10.800440 27.502194 0.937100 0.095422 -20.137571 -3.368817 11.346480 0.000000 0.000000 0.000000 2.927917 -1.896266 1.442068 1.469129 0.234733 3.091204 3.272706 -0.029550 -0.496556 -0.468104 0.212175 0.477890 0.000000 0.000000 0.000000 5.024440 0.569246 -0.356423 -0.083212 -0.189695 -0.000371 0.000000 0.000000 0.000000 2.661450 1.105722 -0.784018 1.253875 -2.583126 -11.844444 8.472567 -12.879726 -57.218728 6.579406 -46.966782 -2.414368 0.000000 0.000000 0.000000 4.663455 0.496095 -0.477234 2.154291 5.092131 6.967321 6.995445 -4.304208 48.078873 4.789208 32.291929 0.714388 0.000000 0.000000 0.000000 
-227.453644 93.063965 -13.898190 0.000000 0.000000 0.000000 7.542808 -2.505584 -1.285242 -31.831847 10.752597 15.662578 33.945907 -9.585954 0.892481 -15.233308 -9.550081 -9.919117 0.000000 0.000000 0.000000 10.172245 10.754645 1.554158 -14.576274 -3.059908 -10.885539 27.557696 0.909689 0.111140 -20.115655 -3.403565 11.357164 0.000000 0.000000 0.000000 2.941178 -1.792349 1.452984 1.453924 0.326882 3.210766 3.208967 0.068564 -0.541128 -0.509475 0.265370 0.455598 0.000000 0.000000 0.000000 4.977012 0.600274 -0.400711 -0.114430 -0.165929 -0.002434 0.000000 0.000000 0.000000 2.630499 1.183805 -0.769631 1.270528 -2.249124 -11.614171 7.491912 -13.721774 -57.300834 6.415093 -48.600266 -2.343407 0.000000 0.000000 0.000000 4.540948 0.515769 -0.545304 2.053763 5.053475 6.748854 6.575254 -3.542748 47.631963 4.798484 33.852296 0.549422 0.000000 0.000000 0.000000 
-227.204361 93.163315 -14.103680 0.000000 0.000000 0.000000 7.452343 -2.685747 -1.309348 -31.962591 10.700489 15.627165 34.117119 -9.507033 0.885600 -15.067908 -9.486696 -9.897545 0.000000 0.000000 0.000000 10.030040 10.676628 1.504915 -14.809426 -3.049799 -10.974418 27.651679 0.873703 0.122292 -20.064145 -3.441555 11.356999 0.000000 0.000000 0.000000 2.967341 -1.658428 1.461448 1.483210 0.455798 3.324351 3.141119 0.171715 -0.582679 -0.550994 0.321709 0.433197 0.000000 0.000000 0.000000 4.926970 0.633445 -0.444390 -0.147397 -0.142320 -0.001875 0.000000 0.000000 0.000000 2.600720 1.263355 -0.755333 1.284608 -1.919885 -11.364070 6.339166 -14.549633 -57.417678 6.178577 -50.328587 -2.298925 0.000000 0.000000 0.000000 4.415192 0.538938 -0.622814 1.949793 5.023259 6.492488 6.050490 -2.725518 47.188862 4.777130 35.540452 0.398799 0.000000 0.000000 0.000000 
-226.941650 93.260834 -14.305192 0.000000 0.000000 0.000000 7.344157 -2.885465 -1.341176 -32.119183 10.642920 15.584234 34.327547 -9.415269 0.871389 -14.867689 -9.409890 -9.882272 0.000000 0.000000 0.000000 9.860996 10.579988 1.456453 -15.081780 -3.040166 -11.067563 27.796384 0.829195 0.128601 -19.973642 -3.481748 11.346155 0.000000 0.000000 0.000000 3.011052 -1.494614 1.466978 1.574063 0.623399 3.427214 3.070074 0.275745 -0.620699 -0.591747 0.378805 0.410678 0.000000 0.000000 0.000000 4.873913 0.666443 -0.487783 -0.182174 -0.120437 0.000982 0.000000 0.000000 0.000000 2.573232 1.340957 -0.743950 1.294899 -1.610864 -11.105060 5.012416 -15.343687 -57.568072 5.857232 -52.120330 -2.293363 0.000000 0.000000 0.000000 4.288636 0.564066 -0.707891 1.844557 4.997500 6.203616 5.414144 -1.870539 46.756507 4.715609 37.323924 0.272009 0.000000 0.000000 0.000000 
-226.672623 93.348732 -14.502462 0.000000 0.000000 0.000000 7.215040 -3.106266 -1.378244 -32.307625 10.578121 15.537500 34.580722 -9.310219 0.848782 -14.630369 -9.318574 -9.874794 0.000000 0.000000 0.000000 9.664182 10.465352 1.408224 -15.395516 -3.030552 -11.165806 28.005963 0.777895 0.129858 -19.833763 -3.521446 11.325988 0.000000 0.000000 0.000000 3.076659 -1.302144 1.469255 1.741610 0.829976 3.515211 2.997315 0.376255 -0.655306 -0.630540 0.434099 0.387748 0.000000 0.000000 0.000000 4.817398 0.696858 -0.531323 -0.218787 -0.101920 0.005666 0.000000 0.000000 0.000000 2.549185 1.412931 -0.737942 1.300481 -1.338746 -10.847149 3.515981 -16.087254 -57.745104 5.439884 -53.941894 -2.338489 0.000000 0.000000 0.000000 4.163477 0.589498 -0.798037 1.739868 4.971796 5.889997 4.661892 -0.998330 46.339183 4.603978 39.162922 0.178663 0.000000 0.000000 0.000000 
-226.405258 93.416435 -14.695932 0.000000 0.000000 0.000000 7.060765 -3.349154 -1.417236 -32.536101 10.503952 15.492143 34.880478 -9.191567 0.816438 -14.354015 -9.211455 -9.877096 0.000000 0.000000 0.000000 9.439208 10.336760 1.359071 -15.752716 -3.019583 -11.270446 28.295904 0.723861 0.126064 -19.633801 -3.555795 11.299634 0.000000 0.000000 0.000000 3.167712 -1.083083 1.468190 1.997399 1.074163 3.585681 2.924843 0.469248 -0.687377 -0.665932 0.485225 0.363773 0.000000 0.000000 0.000000 4.757060 0.722678 -0.575493 -0.257188 -0.088183 0.011603 0.000000 0.000000 0.000000 2.529795 1.475763 -0.739020 1.300933 -1.119723 -10.598001 1.861189 -16.767944 -57.936035 4.918365 -55.759349 -2.443978 0.000000 0.000000 0.000000 4.041837 0.613870 -0.890285 1.637303 4.942814 5.561264 3.792310 -0.128927 45.937841 4.432757 41.014248 0.127635 0.000000 0.000000 0.000000 
-226.148041 93.450768 -14.886687 0.000000 0.000000 0.000000 6.875947 -3.614093 -1.454271 -32.815275 10.418106 15.454637 35.230754 -9.058973 0.772608 -14.037249 -9.086815 -9.891721 0.000000 0.000000 0.000000 9.186179 10.201825 1.307126 -16.155482 -3.004890 -11.383403 28.682147 0.673802 0.117574 -19.363491 -3.577615 11.272452 0.000000 0.000000 0.000000 3.286548 -0.840052 1.463953 2.348321 1.352961 3.638075 2.855241 0.551769 -0.718519 -0.696213 0.530362 0.337808 0.000000 0.000000 0.000000 4.692631 0.742736 -0.620831 -0.297252 -0.080126 0.018124 0.000000 0.000000 0.000000 2.516418 1.526547 -0.747918 1.296494 -0.967684 -10.362115 0.066687 -17.378564 -58.123715 4.289166 -57.540669 -2.616117 0.000000 0.000000 0.000000 3.926057 0.636486 -0.981444 1.538495 4.909709 5.228098 2.806847 0.721264 45.549941 4.194043 42.835876 0.126033 0.000000 0.000000 0.000000 
